<?xml version="1.0" encoding="iso-8859-1"?>
<!-- Generator: Adobe Illustrator 19.0.0, SVG Export Plug-In . SVG Version: 6.00 Build 0)  -->
<svg xmlns="http://www.w3.org/2000/svg" xmlns:xlink="http://www.w3.org/1999/xlink" version="1.1" id="Capa_1" x="0px" y="0px" viewBox="0 0 512 512" style="enable-background:new 0 0 512 512;" xml:space="preserve">
<path style="fill:#464655;" d="M357.02,152.235l-45.255-45.255c-3.125-3.124-8.189-3.124-11.314,0l-30.735,30.735l56.568,56.568  l30.735-30.735C360.144,160.425,360.144,155.359,357.02,152.235z"/>
<circle style="fill:#5B5D6E;" cx="184" cy="280" r="176"/>
<path style="fill:#464655;" d="M239.214,383.219c-83.322-7.733-150.7-75.111-158.433-158.433c-1.536-16.55-0.773-32.68,2.004-48.11  c3.051-16.958-17.988-27.276-29.528-14.481c-31.288,34.692-48.963,81.897-44.6,133.21c7.176,84.39,75.548,152.762,159.938,159.938  c51.313,4.364,98.518-13.311,133.21-44.6c12.795-11.54,2.477-32.58-14.481-29.528C271.893,383.992,255.764,384.755,239.214,383.219z  "/>
<path d="M271.076,155.805c-3.388-2.383-8.067-1.568-10.449,1.82c-2.383,3.388-1.568,8.066,1.82,10.449  c25.498,17.932,44.271,44.211,52.86,73.999c0.948,3.286,3.946,5.424,7.203,5.424c0.688,0,1.387-0.095,2.082-0.295  c3.98-1.148,6.276-5.305,5.128-9.285C320.187,204.857,299.36,175.695,271.076,155.805z"/>
<path d="M138.199,409.036c-23.783-8.417-44.787-23.29-60.743-43.009c-2.606-3.22-7.328-3.717-10.548-1.113  c-3.22,2.605-3.718,7.328-1.113,10.548c17.698,21.873,41.004,38.372,67.399,47.714c0.828,0.293,1.672,0.432,2.502,0.432  c3.088,0,5.981-1.922,7.07-5C144.149,414.704,142.104,410.418,138.199,409.036z"/>
<path d="M242.897,140.171c-5.489-2.32-11.174-4.333-16.899-5.984c-3.982-1.152-8.137,1.147-9.285,5.127  c-1.148,3.98,1.147,8.137,5.127,9.285c5.155,1.487,10.274,3.3,15.216,5.389c0.954,0.403,1.943,0.594,2.917,0.594  c2.923,0,5.702-1.72,6.912-4.582C248.498,146.184,246.712,141.784,242.897,140.171z"/>
<path d="M461.707,98.39c-2.929-2.929-7.678-2.929-10.606,0l-36.073,36.073c-1.795,1.795-4.182,2.784-6.721,2.784  s-4.925-0.989-6.721-2.784c-3.706-3.706-3.706-9.736,0-13.442l8.016-8.016c9.555-9.554,9.555-25.101,0-34.655  c-4.628-4.628-10.782-7.178-17.328-7.178c-6.545,0-12.699,2.549-17.327,7.178l-40.397,40.396l-17.37-17.37  c-6.049-6.049-15.893-6.049-21.943,0l-19.403,19.403c-27.656-16.032-59.159-24.586-91.979-24.586C82.477,96.193,0,178.67,0,280.048  s82.477,183.855,183.855,183.855s183.854-82.477,183.854-183.855c0-32.613-8.471-64.087-24.614-91.952l19.431-19.431  c6.05-6.05,6.05-15.893,0-21.943l-17.37-17.37l40.397-40.397c1.795-1.795,4.182-2.784,6.72-2.784c2.539,0,4.926,0.989,6.721,2.784  c3.706,3.706,3.706,9.736,0,13.442l-8.016,8.016c-9.555,9.554-9.555,25.101,0,34.655c4.777,4.777,11.052,7.166,17.327,7.166  s12.55-2.389,17.328-7.166l36.073-36.073C464.636,106.068,464.636,101.319,461.707,98.39z M351.92,158.06l-17.073,17.073  c-0.189-0.271-0.372-0.545-0.562-0.815c-2.385-3.387-7.063-4.2-10.45-1.814c-3.387,2.385-4.199,7.063-1.814,10.45  c20.078,28.516,30.69,62.09,30.69,97.095c0,93.107-75.748,168.855-168.854,168.855S15,373.155,15,280.048  s75.748-168.855,168.855-168.855c45.098,0,87.499,17.561,119.39,49.448c2.929,2.929,7.678,2.929,10.606-0.001  c2.929-2.929,2.928-7.678-0.001-10.606c-7.805-7.804-16.193-14.813-25.058-21l17.051-17.05c0.201-0.202,0.529-0.201,0.73,0  l45.346,45.346C352.121,157.531,352.121,157.858,351.92,158.06z"/>
<path d="M456.403,79.129c4.142,0,7.5-3.358,7.5-7.5V55.597c0-4.142-3.358-7.5-7.5-7.5s-7.5,3.358-7.5,7.5v16.032  C448.903,75.771,452.261,79.129,456.403,79.129z"/>
<path d="M456.483,136.274h-0.08c-4.142,0-7.46,3.358-7.46,7.5s3.398,7.5,7.54,7.5s7.5-3.358,7.5-7.5  S460.625,136.274,456.483,136.274z"/>
<path d="M504.5,96.193h-16.032c-4.142,0-7.5,3.358-7.5,7.5s3.358,7.5,7.5,7.5H504.5c4.142,0,7.5-3.358,7.5-7.5  S508.642,96.193,504.5,96.193z"/>
<g>
</g>
<g>
</g>
<g>
</g>
<g>
</g>
<g>
</g>
<g>
</g>
<g>
</g>
<g>
</g>
<g>
</g>
<g>
</g>
<g>
</g>
<g>
</g>
<g>
</g>
<g>
</g>
<g>
</g>
</svg>
